<mxfile host="app.diagrams.net" agent="Mozilla/5.0 (Windows NT 10.0; Win64; x64; rv:128.0) Gecko/20100101 Firefox/128.0" version="28.1.1">
  <diagram id="C5RBs43oDa-KdzZeNtuy" name="Page-1">
    <mxGraphModel dx="1810" dy="543" grid="1" gridSize="10" guides="1" tooltips="1" connect="1" arrows="1" fold="1" page="1" pageScale="1" pageWidth="827" pageHeight="1169" math="0" shadow="0">
      <root>
        <mxCell id="WIyWlLk6GJQsqaUBKTNV-0" />
        <mxCell id="WIyWlLk6GJQsqaUBKTNV-1" parent="WIyWlLk6GJQsqaUBKTNV-0" />
        <mxCell id="zkfFHV4jXpPFQw0GAbJ--0" value="Usuario" style="swimlane;fontStyle=2;align=center;verticalAlign=top;childLayout=stackLayout;horizontal=1;startSize=26;horizontalStack=0;resizeParent=1;resizeLast=0;collapsible=1;marginBottom=0;rounded=0;shadow=0;strokeWidth=1;" parent="WIyWlLk6GJQsqaUBKTNV-1" vertex="1">
          <mxGeometry x="220" y="70" width="340" height="188" as="geometry">
            <mxRectangle x="230" y="140" width="160" height="26" as="alternateBounds" />
          </mxGeometry>
        </mxCell>
        <mxCell id="hUNn4TQI5RclX_ojKlK_-9" value="&lt;div&gt;- codigo : int&lt;br&gt;&lt;/div&gt;" style="text;html=1;align=left;verticalAlign=middle;resizable=0;points=[];autosize=1;strokeColor=none;fillColor=none;" vertex="1" parent="zkfFHV4jXpPFQw0GAbJ--0">
          <mxGeometry y="26" width="340" height="30" as="geometry" />
        </mxCell>
        <mxCell id="hUNn4TQI5RclX_ojKlK_-10" value="&lt;div&gt;- nome : string&lt;br&gt;&lt;/div&gt;" style="text;html=1;align=left;verticalAlign=middle;resizable=0;points=[];autosize=1;strokeColor=none;fillColor=none;" vertex="1" parent="zkfFHV4jXpPFQw0GAbJ--0">
          <mxGeometry y="56" width="340" height="30" as="geometry" />
        </mxCell>
        <mxCell id="hUNn4TQI5RclX_ojKlK_-11" value="&lt;div&gt;- senha: string&lt;br&gt;&lt;/div&gt;" style="text;html=1;align=left;verticalAlign=middle;resizable=0;points=[];autosize=1;strokeColor=none;fillColor=none;" vertex="1" parent="zkfFHV4jXpPFQw0GAbJ--0">
          <mxGeometry y="86" width="340" height="30" as="geometry" />
        </mxCell>
        <mxCell id="zkfFHV4jXpPFQw0GAbJ--4" value="" style="line;html=1;strokeWidth=1;align=left;verticalAlign=middle;spacingTop=-1;spacingLeft=3;spacingRight=3;rotatable=0;labelPosition=right;points=[];portConstraint=eastwest;" parent="zkfFHV4jXpPFQw0GAbJ--0" vertex="1">
          <mxGeometry y="116" width="340" height="8" as="geometry" />
        </mxCell>
        <mxCell id="hUNn4TQI5RclX_ojKlK_-12" value="+ autenticar(int codigo, string senha)" style="text;html=1;align=left;verticalAlign=middle;resizable=0;points=[];autosize=1;strokeColor=none;fillColor=none;" vertex="1" parent="zkfFHV4jXpPFQw0GAbJ--0">
          <mxGeometry y="124" width="340" height="30" as="geometry" />
        </mxCell>
        <mxCell id="hUNn4TQI5RclX_ojKlK_-13" value="+ trocarSenha(int codigo, string senha, string novaSenha)" style="text;html=1;align=left;verticalAlign=middle;resizable=0;points=[];autosize=1;strokeColor=none;fillColor=none;" vertex="1" parent="zkfFHV4jXpPFQw0GAbJ--0">
          <mxGeometry y="154" width="340" height="30" as="geometry" />
        </mxCell>
        <mxCell id="hUNn4TQI5RclX_ojKlK_-16" style="edgeStyle=orthogonalEdgeStyle;rounded=0;orthogonalLoop=1;jettySize=auto;html=1;entryX=0.5;entryY=0;entryDx=0;entryDy=0;" edge="1" parent="WIyWlLk6GJQsqaUBKTNV-1" source="zkfFHV4jXpPFQw0GAbJ--6" target="-hgrcaKnrmae-jqhwP5E-14">
          <mxGeometry relative="1" as="geometry" />
        </mxCell>
        <mxCell id="zkfFHV4jXpPFQw0GAbJ--6" value="Aluno" style="swimlane;fontStyle=0;align=center;verticalAlign=top;childLayout=stackLayout;horizontal=1;startSize=26;horizontalStack=0;resizeParent=1;resizeLast=0;collapsible=1;marginBottom=0;rounded=0;shadow=0;strokeWidth=1;" parent="WIyWlLk6GJQsqaUBKTNV-1" vertex="1">
          <mxGeometry x="20" y="360" width="180" height="154" as="geometry">
            <mxRectangle x="130" y="380" width="160" height="26" as="alternateBounds" />
          </mxGeometry>
        </mxCell>
        <mxCell id="hUNn4TQI5RclX_ojKlK_-23" value="- disciplinas : list" style="text;html=1;align=left;verticalAlign=middle;resizable=0;points=[];autosize=1;strokeColor=none;fillColor=none;strokeWidth=0;shadow=0;glass=0;" vertex="1" parent="zkfFHV4jXpPFQw0GAbJ--6">
          <mxGeometry y="26" width="180" height="30" as="geometry" />
        </mxCell>
        <mxCell id="hUNn4TQI5RclX_ojKlK_-28" value="- curso : Curso" style="text;html=1;align=left;verticalAlign=middle;resizable=0;points=[];autosize=1;strokeColor=none;fillColor=none;strokeWidth=0;shadow=0;glass=0;" vertex="1" parent="zkfFHV4jXpPFQw0GAbJ--6">
          <mxGeometry y="56" width="180" height="30" as="geometry" />
        </mxCell>
        <mxCell id="zkfFHV4jXpPFQw0GAbJ--9" value="" style="line;html=1;strokeWidth=1;align=left;verticalAlign=middle;spacingTop=-1;spacingLeft=3;spacingRight=3;rotatable=0;labelPosition=right;points=[];portConstraint=eastwest;" parent="zkfFHV4jXpPFQw0GAbJ--6" vertex="1">
          <mxGeometry y="86" width="180" height="8" as="geometry" />
        </mxCell>
        <mxCell id="hUNn4TQI5RclX_ojKlK_-21" value="+ matricular(string disciplina)" style="text;html=1;align=left;verticalAlign=middle;resizable=0;points=[];autosize=1;strokeColor=none;fillColor=none;strokeWidth=0;shadow=0;glass=0;" vertex="1" parent="zkfFHV4jXpPFQw0GAbJ--6">
          <mxGeometry y="94" width="180" height="30" as="geometry" />
        </mxCell>
        <mxCell id="hUNn4TQI5RclX_ojKlK_-22" value="+ cancelar(string disciplina)" style="text;html=1;align=left;verticalAlign=middle;resizable=0;points=[];autosize=1;strokeColor=none;fillColor=none;strokeWidth=0;shadow=0;glass=0;" vertex="1" parent="zkfFHV4jXpPFQw0GAbJ--6">
          <mxGeometry y="124" width="180" height="30" as="geometry" />
        </mxCell>
        <mxCell id="zkfFHV4jXpPFQw0GAbJ--12" value="" style="endArrow=block;endSize=10;endFill=0;shadow=0;strokeWidth=1;rounded=0;curved=0;edgeStyle=elbowEdgeStyle;elbow=vertical;" parent="WIyWlLk6GJQsqaUBKTNV-1" source="zkfFHV4jXpPFQw0GAbJ--6" edge="1">
          <mxGeometry width="160" relative="1" as="geometry">
            <mxPoint x="200" y="203" as="sourcePoint" />
            <mxPoint x="370" y="260" as="targetPoint" />
          </mxGeometry>
        </mxCell>
        <mxCell id="zkfFHV4jXpPFQw0GAbJ--13" value="Professor" style="swimlane;fontStyle=0;align=center;verticalAlign=top;childLayout=stackLayout;horizontal=1;startSize=26;horizontalStack=0;resizeParent=1;resizeLast=0;collapsible=1;marginBottom=0;rounded=0;shadow=0;strokeWidth=1;" parent="WIyWlLk6GJQsqaUBKTNV-1" vertex="1">
          <mxGeometry x="260" y="360" width="220" height="74" as="geometry">
            <mxRectangle x="340" y="380" width="170" height="26" as="alternateBounds" />
          </mxGeometry>
        </mxCell>
        <mxCell id="zkfFHV4jXpPFQw0GAbJ--15" value="" style="line;html=1;strokeWidth=1;align=left;verticalAlign=middle;spacingTop=-1;spacingLeft=3;spacingRight=3;rotatable=0;labelPosition=right;points=[];portConstraint=eastwest;" parent="zkfFHV4jXpPFQw0GAbJ--13" vertex="1">
          <mxGeometry y="26" width="220" height="8" as="geometry" />
        </mxCell>
        <mxCell id="hUNn4TQI5RclX_ojKlK_-25" value="&lt;div&gt;+ alunosDisciplina (string disciplina)&lt;/div&gt;" style="text;html=1;align=left;verticalAlign=middle;resizable=0;points=[];autosize=1;strokeColor=none;fillColor=none;strokeWidth=0;shadow=0;glass=0;" vertex="1" parent="zkfFHV4jXpPFQw0GAbJ--13">
          <mxGeometry y="34" width="220" height="30" as="geometry" />
        </mxCell>
        <mxCell id="zkfFHV4jXpPFQw0GAbJ--16" value="" style="endArrow=block;endSize=10;endFill=0;shadow=0;strokeWidth=1;rounded=0;curved=0;edgeStyle=elbowEdgeStyle;elbow=vertical;" parent="WIyWlLk6GJQsqaUBKTNV-1" source="zkfFHV4jXpPFQw0GAbJ--13" edge="1">
          <mxGeometry width="160" relative="1" as="geometry">
            <mxPoint x="210" y="373" as="sourcePoint" />
            <mxPoint x="370" y="260" as="targetPoint" />
          </mxGeometry>
        </mxCell>
        <mxCell id="-hgrcaKnrmae-jqhwP5E-0" value="Secretaria" style="swimlane;fontStyle=0;align=center;verticalAlign=top;childLayout=stackLayout;horizontal=1;startSize=26;horizontalStack=0;resizeParent=1;resizeLast=0;collapsible=1;marginBottom=0;rounded=0;shadow=0;strokeWidth=1;" parent="WIyWlLk6GJQsqaUBKTNV-1" vertex="1">
          <mxGeometry x="530" y="360" width="300" height="280" as="geometry">
            <mxRectangle x="340" y="380" width="170" height="26" as="alternateBounds" />
          </mxGeometry>
        </mxCell>
        <mxCell id="hUNn4TQI5RclX_ojKlK_-6" value="&lt;div&gt;- alunos: list&lt;/div&gt;" style="text;html=1;align=left;verticalAlign=middle;resizable=0;points=[];autosize=1;strokeColor=none;fillColor=none;" vertex="1" parent="-hgrcaKnrmae-jqhwP5E-0">
          <mxGeometry y="26" width="300" height="30" as="geometry" />
        </mxCell>
        <mxCell id="hUNn4TQI5RclX_ojKlK_-8" value="&lt;div&gt;- professores: list&lt;/div&gt;" style="text;html=1;align=left;verticalAlign=middle;resizable=0;points=[];autosize=1;strokeColor=none;fillColor=none;" vertex="1" parent="-hgrcaKnrmae-jqhwP5E-0">
          <mxGeometry y="56" width="300" height="30" as="geometry" />
        </mxCell>
        <mxCell id="hUNn4TQI5RclX_ojKlK_-7" value="&lt;div&gt;- cursos : list&lt;/div&gt;" style="text;html=1;align=left;verticalAlign=middle;resizable=0;points=[];autosize=1;strokeColor=none;fillColor=none;" vertex="1" parent="-hgrcaKnrmae-jqhwP5E-0">
          <mxGeometry y="86" width="300" height="30" as="geometry" />
        </mxCell>
        <mxCell id="hUNn4TQI5RclX_ojKlK_-19" value="&lt;div&gt;- disciplinas: list&lt;/div&gt;" style="text;html=1;align=left;verticalAlign=middle;resizable=0;points=[];autosize=1;strokeColor=none;fillColor=none;" vertex="1" parent="-hgrcaKnrmae-jqhwP5E-0">
          <mxGeometry y="116" width="300" height="30" as="geometry" />
        </mxCell>
        <mxCell id="-hgrcaKnrmae-jqhwP5E-2" value="" style="line;html=1;strokeWidth=1;align=left;verticalAlign=middle;spacingTop=-1;spacingLeft=3;spacingRight=3;rotatable=0;labelPosition=right;points=[];portConstraint=eastwest;" parent="-hgrcaKnrmae-jqhwP5E-0" vertex="1">
          <mxGeometry y="146" width="300" height="8" as="geometry" />
        </mxCell>
        <mxCell id="hUNn4TQI5RclX_ojKlK_-0" value="&lt;div&gt;+ criarProfessor(string nome) : Professor&lt;br&gt;&lt;/div&gt;" style="text;html=1;align=left;verticalAlign=middle;resizable=0;points=[];autosize=1;strokeColor=none;fillColor=none;" vertex="1" parent="-hgrcaKnrmae-jqhwP5E-0">
          <mxGeometry y="154" width="300" height="30" as="geometry" />
        </mxCell>
        <mxCell id="hUNn4TQI5RclX_ojKlK_-1" value="&lt;div&gt;+ criarAluno(string nome, string curso) : Aluno&lt;br&gt;&lt;/div&gt;" style="text;html=1;align=left;verticalAlign=middle;resizable=0;points=[];autosize=1;strokeColor=none;fillColor=none;" vertex="1" parent="-hgrcaKnrmae-jqhwP5E-0">
          <mxGeometry y="184" width="300" height="30" as="geometry" />
        </mxCell>
        <mxCell id="hUNn4TQI5RclX_ojKlK_-2" value="&lt;div&gt;+ criarCurso(string nome) : Curso&lt;br&gt;&lt;/div&gt;" style="text;html=1;align=left;verticalAlign=middle;resizable=0;points=[];autosize=1;strokeColor=none;fillColor=none;" vertex="1" parent="-hgrcaKnrmae-jqhwP5E-0">
          <mxGeometry y="214" width="300" height="30" as="geometry" />
        </mxCell>
        <mxCell id="hUNn4TQI5RclX_ojKlK_-3" value="&lt;div&gt;+ criarDisciplina(string nome, string curso)&lt;/div&gt;" style="text;html=1;align=left;verticalAlign=middle;resizable=0;points=[];autosize=1;strokeColor=none;fillColor=none;" vertex="1" parent="-hgrcaKnrmae-jqhwP5E-0">
          <mxGeometry y="244" width="300" height="30" as="geometry" />
        </mxCell>
        <mxCell id="-hgrcaKnrmae-jqhwP5E-3" style="edgeStyle=elbowEdgeStyle;rounded=0;orthogonalLoop=1;jettySize=auto;html=1;endArrow=block;endFill=0;endSize=10;elbow=vertical;" parent="WIyWlLk6GJQsqaUBKTNV-1" source="-hgrcaKnrmae-jqhwP5E-0" edge="1">
          <mxGeometry relative="1" as="geometry">
            <mxPoint x="370" y="260" as="targetPoint" />
          </mxGeometry>
        </mxCell>
        <mxCell id="-hgrcaKnrmae-jqhwP5E-5" value="Disciplina" style="swimlane;fontStyle=0;align=center;verticalAlign=top;childLayout=stackLayout;horizontal=1;startSize=26;horizontalStack=0;resizeParent=1;resizeLast=0;collapsible=1;marginBottom=0;rounded=0;shadow=0;strokeWidth=1;" parent="WIyWlLk6GJQsqaUBKTNV-1" vertex="1">
          <mxGeometry x="-210" y="560" width="190" height="124" as="geometry">
            <mxRectangle x="340" y="380" width="170" height="26" as="alternateBounds" />
          </mxGeometry>
        </mxCell>
        <mxCell id="hUNn4TQI5RclX_ojKlK_-26" value="- nome : string" style="text;html=1;align=left;verticalAlign=middle;resizable=0;points=[];autosize=1;strokeColor=none;fillColor=none;strokeWidth=0;shadow=0;glass=0;" vertex="1" parent="-hgrcaKnrmae-jqhwP5E-5">
          <mxGeometry y="26" width="190" height="30" as="geometry" />
        </mxCell>
        <mxCell id="hUNn4TQI5RclX_ojKlK_-27" value="- alunos : list" style="text;html=1;align=left;verticalAlign=middle;resizable=0;points=[];autosize=1;strokeColor=none;fillColor=none;strokeWidth=0;shadow=0;glass=0;" vertex="1" parent="-hgrcaKnrmae-jqhwP5E-5">
          <mxGeometry y="56" width="190" height="30" as="geometry" />
        </mxCell>
        <mxCell id="-hgrcaKnrmae-jqhwP5E-7" value="" style="line;html=1;strokeWidth=1;align=left;verticalAlign=middle;spacingTop=-1;spacingLeft=3;spacingRight=3;rotatable=0;labelPosition=right;points=[];portConstraint=eastwest;" parent="-hgrcaKnrmae-jqhwP5E-5" vertex="1">
          <mxGeometry y="86" width="190" height="8" as="geometry" />
        </mxCell>
        <mxCell id="hUNn4TQI5RclX_ojKlK_-34" value="- matricularAluno(Aluno aluno)" style="text;html=1;align=left;verticalAlign=middle;resizable=0;points=[];autosize=1;strokeColor=none;fillColor=none;strokeWidth=0;shadow=0;glass=0;" vertex="1" parent="-hgrcaKnrmae-jqhwP5E-5">
          <mxGeometry y="94" width="190" height="30" as="geometry" />
        </mxCell>
        <mxCell id="-hgrcaKnrmae-jqhwP5E-19" style="edgeStyle=orthogonalEdgeStyle;rounded=0;orthogonalLoop=1;jettySize=auto;html=1;entryX=0.5;entryY=1;entryDx=0;entryDy=0;" parent="WIyWlLk6GJQsqaUBKTNV-1" source="-hgrcaKnrmae-jqhwP5E-14" target="-hgrcaKnrmae-jqhwP5E-5" edge="1">
          <mxGeometry relative="1" as="geometry" />
        </mxCell>
        <mxCell id="-hgrcaKnrmae-jqhwP5E-14" value="Curso" style="swimlane;fontStyle=0;align=center;verticalAlign=top;childLayout=stackLayout;horizontal=1;startSize=26;horizontalStack=0;resizeParent=1;resizeLast=0;collapsible=1;marginBottom=0;rounded=0;shadow=0;strokeWidth=1;" parent="WIyWlLk6GJQsqaUBKTNV-1" vertex="1">
          <mxGeometry x="180" y="630" width="220" height="184" as="geometry">
            <mxRectangle x="340" y="380" width="170" height="26" as="alternateBounds" />
          </mxGeometry>
        </mxCell>
        <mxCell id="-hgrcaKnrmae-jqhwP5E-16" value="&lt;div align=&quot;left&quot;&gt;&lt;font&gt;&lt;span style=&quot;line-height: 0%;&quot;&gt;- nome: string&lt;br&gt;&lt;/span&gt;&lt;/font&gt;&lt;/div&gt;" style="text;html=1;align=left;verticalAlign=middle;resizable=0;points=[];autosize=1;strokeColor=none;fillColor=none;strokeWidth=0;shadow=0;glass=0;" parent="-hgrcaKnrmae-jqhwP5E-14" vertex="1">
          <mxGeometry y="26" width="220" height="30" as="geometry" />
        </mxCell>
        <mxCell id="-hgrcaKnrmae-jqhwP5E-18" value="&lt;div align=&quot;left&quot;&gt;- creditos: int&lt;/div&gt;" style="text;html=1;align=left;verticalAlign=middle;resizable=0;points=[];autosize=1;strokeColor=none;fillColor=none;strokeWidth=0;shadow=0;glass=0;" parent="-hgrcaKnrmae-jqhwP5E-14" vertex="1">
          <mxGeometry y="56" width="220" height="30" as="geometry" />
        </mxCell>
        <mxCell id="hUNn4TQI5RclX_ojKlK_-14" value="- disciplinas : list" style="text;html=1;align=left;verticalAlign=middle;resizable=0;points=[];autosize=1;strokeColor=none;fillColor=none;strokeWidth=0;shadow=0;glass=0;" vertex="1" parent="-hgrcaKnrmae-jqhwP5E-14">
          <mxGeometry y="86" width="220" height="30" as="geometry" />
        </mxCell>
        <mxCell id="-hgrcaKnrmae-jqhwP5E-15" value="" style="line;html=1;strokeWidth=1;align=left;verticalAlign=middle;spacingTop=-1;spacingLeft=3;spacingRight=3;rotatable=0;labelPosition=right;points=[];portConstraint=eastwest;" parent="-hgrcaKnrmae-jqhwP5E-14" vertex="1">
          <mxGeometry y="116" width="220" height="8" as="geometry" />
        </mxCell>
        <mxCell id="hUNn4TQI5RclX_ojKlK_-15" value="+ adicionarDisciplina()" style="text;html=1;align=left;verticalAlign=middle;resizable=0;points=[];autosize=1;strokeColor=none;fillColor=none;strokeWidth=0;shadow=0;glass=0;" vertex="1" parent="-hgrcaKnrmae-jqhwP5E-14">
          <mxGeometry y="124" width="220" height="30" as="geometry" />
        </mxCell>
        <mxCell id="hUNn4TQI5RclX_ojKlK_-17" style="edgeStyle=orthogonalEdgeStyle;rounded=0;orthogonalLoop=1;jettySize=auto;html=1;entryX=0.71;entryY=0.007;entryDx=0;entryDy=0;entryPerimeter=0;" edge="1" parent="WIyWlLk6GJQsqaUBKTNV-1" source="zkfFHV4jXpPFQw0GAbJ--13" target="-hgrcaKnrmae-jqhwP5E-14">
          <mxGeometry relative="1" as="geometry" />
        </mxCell>
        <mxCell id="hUNn4TQI5RclX_ojKlK_-29" value="*" style="text;html=1;align=center;verticalAlign=middle;resizable=0;points=[];autosize=1;strokeColor=none;fillColor=none;" vertex="1" parent="WIyWlLk6GJQsqaUBKTNV-1">
          <mxGeometry x="110" y="514" width="30" height="30" as="geometry" />
        </mxCell>
        <mxCell id="hUNn4TQI5RclX_ojKlK_-30" value="1" style="text;html=1;align=center;verticalAlign=middle;resizable=0;points=[];autosize=1;strokeColor=none;fillColor=none;" vertex="1" parent="WIyWlLk6GJQsqaUBKTNV-1">
          <mxGeometry x="250" y="580" width="30" height="30" as="geometry" />
        </mxCell>
        <mxCell id="hUNn4TQI5RclX_ojKlK_-31" value="1" style="text;html=1;align=center;verticalAlign=middle;resizable=0;points=[];autosize=1;strokeColor=none;fillColor=none;" vertex="1" parent="WIyWlLk6GJQsqaUBKTNV-1">
          <mxGeometry x="150" y="690" width="30" height="30" as="geometry" />
        </mxCell>
        <mxCell id="hUNn4TQI5RclX_ojKlK_-32" value="*" style="text;html=1;align=center;verticalAlign=middle;resizable=0;points=[];autosize=1;strokeColor=none;fillColor=none;fontStyle=0" vertex="1" parent="WIyWlLk6GJQsqaUBKTNV-1">
          <mxGeometry x="-150" y="687" width="30" height="30" as="geometry" />
        </mxCell>
        <mxCell id="hUNn4TQI5RclX_ojKlK_-33" style="edgeStyle=orthogonalEdgeStyle;rounded=0;orthogonalLoop=1;jettySize=auto;html=1;entryX=0.448;entryY=-0.025;entryDx=0;entryDy=0;entryPerimeter=0;" edge="1" parent="WIyWlLk6GJQsqaUBKTNV-1" source="hUNn4TQI5RclX_ojKlK_-28" target="-hgrcaKnrmae-jqhwP5E-5">
          <mxGeometry relative="1" as="geometry" />
        </mxCell>
        <mxCell id="hUNn4TQI5RclX_ojKlK_-35" value="*" style="text;html=1;align=center;verticalAlign=middle;resizable=0;points=[];autosize=1;strokeColor=none;fillColor=none;fontStyle=0" vertex="1" parent="WIyWlLk6GJQsqaUBKTNV-1">
          <mxGeometry x="-10" y="430" width="30" height="30" as="geometry" />
        </mxCell>
        <mxCell id="hUNn4TQI5RclX_ojKlK_-36" value="*" style="text;html=1;align=center;verticalAlign=middle;resizable=0;points=[];autosize=1;strokeColor=none;fillColor=none;fontStyle=0" vertex="1" parent="WIyWlLk6GJQsqaUBKTNV-1">
          <mxGeometry x="-120" y="530" width="30" height="30" as="geometry" />
        </mxCell>
      </root>
    </mxGraphModel>
  </diagram>
</mxfile>
